<svg width="226" height="210" viewBox="0 0 226 210" fill="none" xmlns="http://www.w3.org/2000/svg">
<g clip-path="url(#clip0_195_717)">
<path d="M105.656 2.30043C76.6077 4.60088 50.4297 18.7486 32.5472 41.753C22.6443 54.4917 15.6406 69.8471 12.5406 85.6914C11.0767 93.1966 10.6748 97.625 10.6748 105.964C10.6748 111.313 10.8183 114.648 11.1915 117.61C14.9517 148.925 31.4277 175.926 57.2613 193.093C70.1206 201.634 84.4152 206.925 100.489 209.081C106.058 209.829 117.712 209.973 123.022 209.369C134.044 208.132 143.287 205.688 153.276 201.404C165.36 196.228 175.895 188.924 185.625 178.974C202.101 162.095 211.803 141.621 214.76 117.438C215.42 111.916 215.42 100.012 214.76 94.4619C211.803 70.336 202.101 49.8333 185.625 32.9538C175.837 22.9756 165.389 15.7293 153.161 10.467C143.517 6.3262 134.676 3.96825 124.314 2.73177C119.75 2.18541 109.933 1.95537 105.656 2.30043ZM124.113 9.63309C166.279 14.8953 199.977 47.3028 207.096 89.4296C208.129 95.4396 208.387 98.9765 208.387 105.964C208.387 114.907 207.67 121.118 205.689 129.285C200.006 152.836 185.223 173.913 165.073 187.17C152.443 195.48 138.924 200.455 123.883 202.324C119.061 202.928 107.608 203.014 103.073 202.468C80.655 199.822 61.2511 190.419 45.5214 174.546C17.4776 146.308 9.52665 103.29 25.6008 66.7128C38.5463 37.2959 65.0113 16.1606 96.0403 10.5245C99.5134 9.89189 103.589 9.40305 107.665 9.08673C110.536 8.85669 120.668 9.20175 124.113 9.63309Z" fill="white"/>
<path d="M110.679 14.8953L111.684 15.3842L111.598 19.6975C111.512 23.1194 111.397 24.1259 111.052 24.4997C110.622 24.9885 110.65 25.0173 111.684 25.0173C112.545 25.0173 112.717 24.931 112.459 24.6722C112.086 24.2984 112 19.8988 112.344 17.9722L112.574 16.822L115.846 21.2216L119.147 25.6212L119.348 24.3847C119.434 23.6945 119.549 21.7679 119.549 20.1001C119.577 16.3044 119.75 15.3842 120.553 15.0104C121.041 14.7516 120.783 14.6941 119.29 14.7228C118.085 14.7228 117.683 14.7803 118.142 14.9241C118.86 15.1254 118.86 15.1541 118.946 18.7773C118.975 20.7902 118.917 22.4293 118.774 22.4293C118.63 22.4293 117.166 20.6177 115.53 18.4035L112.545 14.4065L111.11 14.3777H109.675L110.679 14.8953Z" fill="white"/>
<path d="M104.651 14.8379C104.651 14.9241 104.852 15.1829 105.082 15.413C105.312 15.6718 105.512 16.3907 105.541 17.052C105.541 17.7134 105.656 19.6113 105.771 21.2791C105.914 22.9469 105.943 24.4422 105.886 24.6147C105.828 24.7873 105.484 25.1036 105.139 25.2761C104.737 25.5062 104.68 25.5637 105.025 25.4487C105.312 25.3624 106.287 25.3049 107.177 25.2761C108.383 25.2761 108.641 25.1899 108.211 25.0173C107.464 24.7298 107.321 24.0396 107.062 19.1512C106.89 15.758 106.919 15.413 107.378 15.0392C107.866 14.7228 107.723 14.6653 106.287 14.6653C105.398 14.6653 104.651 14.7516 104.651 14.8379Z" fill="white"/>
<path d="M97.332 15.7005C95.1505 16.1031 93.2847 16.4769 93.2273 16.5344C93.1699 16.5919 93.2273 17.1383 93.3996 17.7422C93.5718 18.461 93.6866 18.6048 93.7153 18.2022C93.744 17.4834 94.5764 16.8507 95.8394 16.5632C96.8153 16.3331 96.7579 16.1894 97.619 21.3078L98.2792 25.4486L97.6764 25.9662C97.1024 26.4838 97.1024 26.4838 98.6524 26.2825C100.116 26.11 101.322 25.5924 100.289 25.5924C99.9728 25.5924 99.7431 25.1611 99.5422 24.2121C99.0255 21.8254 98.2218 16.4194 98.3653 16.2756C98.4227 16.2181 98.9681 16.0743 99.5422 15.9593C100.461 15.7868 100.719 15.873 101.379 16.5344L102.154 17.3108L101.953 16.3906C101.867 15.873 101.781 15.3554 101.781 15.2117C101.781 15.0679 101.695 14.9529 101.58 14.9816C101.437 15.0104 99.5422 15.3267 97.332 15.7005Z" fill="white"/>
<path d="M125.433 16.3619C124.916 16.6782 124.141 17.3971 123.711 18.001C122.965 18.9787 122.878 19.295 122.878 21.3941C122.878 23.3783 122.965 23.8671 123.567 24.701C124.773 26.3976 127.528 27.2027 129.538 26.4263C133.729 24.8448 134.13 18.2885 130.169 16.2469C128.992 15.643 126.524 15.7005 125.433 16.3619ZM130.341 17.2821C131.145 18.0872 131.203 18.2598 131.203 20.3589C131.174 24.1547 129.71 26.3401 127.213 26.2826C124.945 26.1963 123.74 23.6658 124.428 20.3589C124.859 18.346 125.691 17.0233 126.84 16.5344C128.045 15.9881 129.279 16.2469 130.341 17.2821Z" fill="white"/>
<path d="M87.142 18.1735C87.0846 19.9276 85.7068 28.8418 85.4198 29.1868C84.9605 29.7332 85.3911 29.7332 86.855 29.2156C87.7448 28.8993 87.7735 28.8418 87.1994 28.698C86.5392 28.5255 86.4244 27.8928 86.7402 26.2538C86.8837 25.4774 87.0846 25.3624 88.8929 24.8735C91.1031 24.2984 90.9022 24.2409 92.2226 26.11C92.6245 26.7139 92.6245 26.8001 92.1652 27.289C91.7059 27.8353 91.7346 27.8353 93.4856 27.289C95.4948 26.6564 95.868 26.4551 94.9782 26.4551C94.5476 26.4551 93.3995 25.2186 90.9596 22.1417C89.0939 19.7838 87.4865 17.8572 87.3716 17.8284C87.2281 17.8284 87.142 18.0009 87.142 18.1735ZM89.0939 21.998C89.7541 22.8606 90.2994 23.6658 90.2994 23.8096C90.2994 24.0684 87.3716 24.9023 87.142 24.701C86.9985 24.586 86.9985 24.5285 87.2855 22.0555C87.3716 21.1641 87.5439 20.4164 87.6587 20.4452C87.7735 20.4452 88.405 21.1353 89.0939 21.998Z" fill="white"/>
<path d="M137.804 23.0332C135.336 25.9087 134.13 27.1165 133.499 27.2602L132.638 27.4903L134.044 27.9791C135.623 28.5255 136.341 28.6118 135.594 28.1517C134.848 27.7491 134.963 27.2027 135.939 26.0525L136.828 25.0748L138.752 25.7074L140.675 26.3688L140.761 27.9791C140.847 29.4457 140.79 29.5894 140.187 29.6757C139.699 29.762 139.928 29.9058 141.105 30.3083C141.966 30.6246 142.885 30.9122 143.115 30.9985C143.43 31.1135 143.373 30.9697 142.971 30.5096C142.512 29.9633 142.34 29.0431 141.995 24.4134C141.766 21.4229 141.507 18.9787 141.421 19.0074C141.306 19.0074 139.699 20.819 137.804 23.0332ZM140.617 23.4933C140.703 24.7298 140.732 25.765 140.675 25.8225C140.503 26.0238 137.374 24.9023 137.374 24.6435C137.374 24.3559 139.986 21.3079 140.273 21.3079C140.359 21.2791 140.531 22.2855 140.617 23.4933Z" fill="white"/>
<path d="M149.286 22.4293L149.86 23.0619L148.138 26.3688C145.497 31.4298 145.526 31.4298 144.607 31.1997C143.574 30.9409 143.804 31.1135 145.698 32.0624C147.104 32.7813 147.219 32.7813 146.731 32.2637C146.1 31.5161 146.129 31.3723 148.425 27.174L150.004 24.2984L149.803 29.3306L149.63 34.3341L150.865 33.3564C155.084 29.992 157.065 28.468 157.266 28.468C157.553 28.468 154.051 35.1392 153.62 35.4268C153.448 35.5418 153.046 35.5706 152.73 35.4843C152.415 35.398 152.96 35.8006 153.965 36.347C155.945 37.4972 156.29 37.6122 155.63 36.9221C155.371 36.692 155.17 36.3182 155.17 36.1457C155.199 35.3693 159.131 28.2954 159.706 28.0079C160.308 27.7203 160.28 27.6916 159.304 27.2027L158.27 26.7426L155.084 29.2156C153.305 30.5959 151.697 31.8611 151.467 32.0336C151.123 32.2924 151.094 31.6886 151.267 27.7491L151.439 23.1194L150.09 22.4581L148.712 21.7967L149.286 22.4293Z" fill="white"/>
<path d="M74.0817 23.0044C73.1345 23.4645 72.5891 23.8383 72.8762 23.8383C73.3928 23.8671 73.7947 24.6147 76.2345 30.3083L77.2392 32.5512L76.5503 33.0976C76.1771 33.3852 75.9475 33.644 76.0336 33.644C76.1197 33.644 77.7845 32.9538 79.7364 32.0912L83.267 30.5671L83.3244 29.3019L83.4105 28.0366L82.8938 29.0431C82.2623 30.3083 79.392 31.9474 78.6457 31.4585C78.129 31.1422 75.0864 24.3559 75.0864 23.5508C75.0864 23.2632 75.3734 22.8319 75.7179 22.6018C76.6938 21.9117 76.0049 22.0842 74.0817 23.0044Z" fill="white"/>
<path d="M61.7392 29.7332C60.5336 30.2508 59.3855 31.6886 58.9836 33.1551C58.0364 36.577 61.2799 40.4878 64.8105 40.1714C69.3744 39.7689 70.9531 34.0465 67.4226 30.7109C65.9587 29.3306 63.6049 28.928 61.7392 29.7332ZM64.2651 30.3083C66.0735 31.0559 68.255 34.2766 68.3124 36.2319C68.3411 37.5834 67.5661 38.7624 66.3031 39.28C65.3846 39.6538 65.1836 39.6538 64.0929 39.165C62.1697 38.2736 60.3901 35.9444 59.9882 33.759C59.7586 32.4937 60.5336 30.9409 61.6818 30.3658C62.8012 29.8195 63.0883 29.8195 64.2651 30.3083Z" fill="white"/>
<path d="M102.929 29.7907C93.8301 30.8834 86.0513 33.2414 77.6698 37.4109C55.0798 48.6831 39.3787 70.2497 35.6185 95.1808C34.8722 100.155 34.7287 110.076 35.3315 115.31C36.3935 124.741 38.6899 132.534 42.8232 140.902C53.214 161.865 72.7614 177.249 95.3227 182.166C101.551 183.518 104.939 183.863 112.114 183.863C119.807 183.834 124.285 183.288 130.887 181.591C145.354 177.882 159.361 169.456 168.862 158.788C179.597 146.682 185.797 133.569 188.237 117.754C188.984 112.923 189.127 101.996 188.524 97.4812C186.802 84.5412 182.87 73.9592 175.981 63.6935C169.953 54.7218 163.179 47.9642 154.309 42.0981C143.89 35.2255 132.925 31.1997 120.582 29.762C116.018 29.2444 107.464 29.2444 102.929 29.7907ZM117.999 33.644C139.9 35.6856 158.873 46.6127 171.675 64.5561C178.134 73.5854 182.497 84.8 184.362 96.9061C185.051 101.507 185.051 111.543 184.334 116.316C182.382 129.687 177.043 142.167 169.006 152.26C157.782 166.322 141.68 175.84 124.055 178.859C103.762 182.339 82.3772 176.731 66.1882 163.734C63.1456 161.261 57.6919 155.855 55.3094 152.893C46.2677 141.678 40.6417 127.962 39.1778 113.469C38.7473 109.185 38.9769 100.242 39.6371 96.0434C43.1103 73.4704 56.228 54.2904 75.9475 42.9032C88.3189 35.7719 103.905 32.35 117.999 33.644Z" fill="white"/>
<path d="M73.9955 52.5651C70.8381 53.8304 68.4844 57.2523 68.4844 60.5591C68.4844 64.1536 70.5224 67.4317 73.7946 69.0133C75.2298 69.7322 76.2057 69.8184 80.9706 69.5021C82.0326 69.4446 82.1187 69.5021 82.1187 70.1922C82.1187 70.7674 81.4011 71.5438 78.7604 73.8729C76.8946 75.4833 75.3733 76.921 75.3733 77.0648C75.3733 77.2086 75.7752 77.6974 76.2631 78.1863C77.5261 79.4803 78.2437 79.4803 82.291 78.215C84.5873 77.4961 85.2475 77.1511 86.166 76.2021C86.7688 75.5695 87.4577 75.0519 87.6586 75.0519C87.8882 75.0519 88.8929 75.8571 89.8975 76.806L91.7346 78.5889L94.0883 78.4163C95.4087 78.3301 97.0448 78.0713 97.7624 77.8412C99.8865 77.2373 99.6855 76.691 96.1837 73.7292C94.5475 72.3202 93.1698 70.9974 93.1698 70.7961C93.1698 70.5661 94.5762 68.8982 96.3272 67.0579C98.0494 65.1888 99.4846 63.4922 99.4846 63.2622C99.4846 62.6583 95.7244 58.9488 95.1216 58.9488C94.8633 58.9488 92.9114 60.5591 90.816 62.5433C88.7206 64.4987 86.7688 66.1377 86.4817 66.1377C85.7067 66.1377 85.5632 65.3613 86.1086 63.7223C87.4577 59.4089 85.5058 55.0093 81.3437 52.9389C79.8224 52.1625 79.2771 52.0475 77.4113 52.0763C76.0622 52.0763 74.7705 52.2776 73.9955 52.5651ZM80.4252 57.5686C81.3437 58.4887 82.1474 60.4154 81.7456 60.7892C81.6595 60.8755 80.9132 60.8755 80.0521 60.7604C78.703 60.6167 78.4159 60.6742 77.8132 61.2493C77.2104 61.7956 77.0956 62.1982 77.0956 63.4635C77.0956 64.815 77.0381 64.9875 76.4928 64.9875C75.5742 64.9875 73.9955 63.8948 73.5076 62.9746C72.5029 61.048 73.2492 58.2299 75.0863 56.9935C75.9187 56.4184 76.3493 56.3321 77.7557 56.4184C79.1909 56.5334 79.5641 56.6772 80.4252 57.5686Z" fill="white"/>
<path d="M145.87 55.1243C144.004 55.7569 141.622 57.9999 140.646 60.0128C139.728 61.8531 139.584 64.2686 140.215 66.4828C140.646 68.0356 140.359 68.7257 139.326 68.7257C138.981 68.7257 136.857 67.3454 134.561 65.6776C132.265 64.0098 130.227 62.572 130.026 62.4857C129.509 62.2845 125.605 65.8501 125.605 66.5115C125.605 66.8278 126.753 68.4381 128.131 70.106C131.49 74.1892 131.719 74.5343 131.26 75.0807C131.088 75.3395 128.418 77.8987 125.376 80.803C120.869 85.0876 119.922 86.1228 120.352 86.2666C122.017 86.8704 127.385 87.7618 127.873 87.5318C128.189 87.388 130.083 85.7777 132.092 83.9661C135.652 80.7167 137.316 79.3652 137.69 79.3652C137.804 79.3652 139.412 80.6017 141.278 82.097C143.115 83.5923 144.779 84.8288 144.923 84.8288C145.44 84.8288 149.114 81.5219 149.315 80.8893C149.487 80.1991 149.315 79.9691 145.325 75.5407C143.631 73.6716 143.402 73.2691 143.66 72.7802C144.091 72.0038 144.952 71.7738 146.186 72.2051C147.793 72.7227 151.037 72.4064 152.759 71.515C159.39 68.1506 159.361 59.0351 152.73 55.7569C150.434 54.6355 147.966 54.4054 145.87 55.1243ZM151.066 59.8115C152.759 60.8179 153.592 62.8308 153.132 64.5849C152.759 65.9076 151.267 67.518 150.09 67.8343L149.142 68.1218V66.4252C149.142 64.1248 148.654 63.6072 146.358 63.3772C145.038 63.2334 144.55 63.0609 144.55 62.7733C144.55 61.9106 145.526 60.3003 146.387 59.7827C147.592 59.0638 149.86 59.0638 151.066 59.8115Z" fill="white"/>
<path d="M82.2623 80.4004C79.6503 81.2631 77.2679 82.2408 76.9521 82.5571L76.378 83.1322L77.4688 84.1099C78.7031 85.2026 81.5734 86.6404 82.004 86.4103C82.5494 86.0653 82.2336 85.5189 80.9707 84.7425C79.5642 83.8511 79.2771 83.1035 80.3392 83.1035C81.2577 83.1322 86.0513 85.2026 86.2809 85.6915C87.142 87.5893 87.3429 87.7618 88.8642 88.3082C93.1985 89.861 93.1124 89.861 97.1884 89.2571C98.3365 89.1134 98.6236 89.1996 99.9153 90.0623C101.465 91.1262 102.642 92.6215 102.642 93.513C102.642 93.8293 102.24 94.8932 101.781 95.8709C101.121 97.2224 100.949 97.9125 101.092 98.4877C101.207 98.9477 102.441 100.443 103.991 101.967C106.201 104.152 107.149 104.9 109.072 105.82C110.363 106.453 111.569 106.971 111.713 106.971C111.885 106.971 112.315 107.287 112.688 107.689C113.291 108.322 113.32 108.523 113.09 109.904C112.947 110.738 112.861 113.21 112.918 115.367C112.947 117.61 112.889 119.335 112.746 119.335C112.602 119.335 110.765 117.495 108.699 115.223C105.627 111.888 104.938 111.025 105.082 110.479C105.225 109.904 105.139 109.846 104.077 109.846H102.929V108.696V107.546H101.494C100.317 107.546 99.9153 107.402 99.1115 106.683C98.3365 106.022 97.8486 105.82 96.93 105.82H95.7532V106.971C95.7532 108.092 95.7245 108.121 94.7485 108.121C93.7726 108.121 93.7439 108.15 93.7439 109.271V110.421H84.8744C76.2345 110.421 75.9762 110.392 75.804 109.846C75.6604 109.415 75.3734 109.271 74.5123 109.271C73.4502 109.271 73.3641 109.185 72.1873 107.258C71.4984 106.137 70.8382 105.245 70.7234 105.245C70.6085 105.245 69.9771 105.964 69.2882 106.827C68.2835 108.15 67.9104 108.408 67.1641 108.408C66.6761 108.408 66.2168 108.466 66.1307 108.552C66.0446 108.638 66.5039 110.105 67.1641 111.801L68.3696 114.878L81.8318 115.022L95.3226 115.166L102.355 117.38C110.507 119.911 112.114 120.486 112.631 120.859C113.119 121.233 113.09 125.058 112.545 127.876C112 130.751 112 131.729 112.602 133.454C113.033 134.662 113.062 134.978 112.717 135.784C112.258 136.905 112.258 137.106 112.631 139.234C113.004 141.161 113.55 142.11 114.841 142.915C116.133 143.72 116.592 143.634 115.875 142.742C115.042 141.678 115.128 140.614 116.133 139.205C116.965 138.084 116.994 137.911 116.678 137.02C116.334 136.129 116.363 135.985 117.252 134.978C118.056 134.087 118.171 133.742 118.056 132.937C117.913 132.045 117.941 131.988 118.716 131.988C119.348 131.988 119.549 131.844 119.635 131.384C119.721 130.665 120.065 130.435 121.874 129.917C123.137 129.544 123.165 129.515 123.309 128.106C123.452 126.812 123.539 126.639 124.601 126.035C126.007 125.259 126.61 124.425 128.677 120.399C130.14 117.524 131.518 115.885 132.437 115.885C132.953 115.885 133.298 114.993 133.757 112.319C134.016 110.91 134.389 109.472 134.647 109.098C134.877 108.725 135.766 108.063 136.57 107.661C138.522 106.683 143.115 101.967 143.115 100.961C143.115 99.8679 142.053 97.8838 140.933 96.9061C140.158 96.2447 139.67 96.0434 138.723 96.0434C137.718 96.0434 137.116 95.7846 135.221 94.4619C133.987 93.5992 132.753 92.8803 132.465 92.8803C132.207 92.8803 131.748 93.2254 131.49 93.6567L130.973 94.4331L130.227 93.5417C129.825 93.0816 129.136 92.449 128.705 92.1614C127.959 91.7014 127.815 91.7014 126.753 92.1327L125.605 92.5928L124.515 91.5863C123.567 90.7524 123.022 90.5224 120.927 90.1773C119.319 89.8898 117.712 89.3722 116.391 88.7108C115.272 88.1357 113.751 87.5893 113.033 87.5031C111.827 87.388 111.569 87.4455 110.564 88.2507C109.962 88.7395 109.359 89.1421 109.244 89.1421C109.158 89.1421 108.756 88.8258 108.383 88.4232C107.579 87.5606 107.005 87.7906 106.087 89.3146C105.254 90.6086 104.364 90.9825 102.9 90.5799C101.752 90.2636 100.633 88.9696 100.633 87.9631C100.633 86.9279 99.6569 86.2091 98.0495 86.094C95.8106 85.8927 95.581 85.5764 95.9828 83.2472C96.3847 81.2056 96.1837 80.4004 95.1791 80.0841C94.4902 79.8541 93.5717 80.3429 93.1698 81.1193C92.768 81.8382 91.218 82.8159 90.4143 82.8159C89.4096 82.8159 88.5772 81.8957 88.2041 80.3717C88.0031 79.509 87.6874 78.9051 87.429 78.8764C87.1994 78.8476 84.8744 79.5378 82.2623 80.4004ZM70.4937 107.689C70.4937 109.156 70.4363 109.271 69.8048 109.271C69.4317 109.271 68.9724 109.07 68.7715 108.84C68.4845 108.495 68.5993 108.207 69.3456 107.258C69.8335 106.625 70.3215 106.108 70.3789 106.108C70.4363 106.108 70.4937 106.827 70.4937 107.689ZM71.9289 107.459C72.4169 108.207 72.79 108.926 72.79 109.041C72.79 109.156 72.3308 109.271 71.7854 109.271H70.7808V107.689C70.7808 106.827 70.8382 106.108 70.9243 106.108C71.0104 106.108 71.4697 106.712 71.9289 107.459ZM108.354 115.338C110.277 117.38 111.827 119.192 111.827 119.364C111.827 119.853 110.966 119.652 103.446 117.38L95.9828 115.166L99.7143 115.08L103.446 114.993L104.049 113.297C104.393 112.348 104.738 111.571 104.795 111.571C104.824 111.571 106.46 113.268 108.354 115.338Z" fill="white"/>
<path d="M102.212 79.0777C101.867 79.1927 101.437 79.509 101.236 79.7391C100.92 80.1416 100.977 80.1704 101.839 79.9404C103.389 79.4803 104.623 79.5953 106.374 80.4004C107.723 81.0043 108.153 81.0906 108.641 80.8318C108.986 80.6305 109.244 80.4004 109.244 80.2567C109.244 80.0266 103.905 78.7614 103.13 78.8189C102.929 78.8189 102.527 78.9339 102.212 79.0777Z" fill="white"/>
<path d="M111.426 80.7168C111.11 81.4932 111.684 81.7807 112.545 81.2056C113.119 80.8318 113.205 80.6592 112.918 80.4867C112.315 80.0841 111.627 80.1992 111.426 80.7168Z" fill="white"/>
<path d="M102.786 81.3494C102.585 81.7232 103.274 82.0395 103.934 81.8957C104.192 81.867 104.393 81.6657 104.393 81.5219C104.393 81.1193 103.015 80.9756 102.786 81.3494Z" fill="white"/>
<path d="M56.5723 99.149C54.9648 100.299 51.8935 103.635 50.6018 105.619C47.9898 109.559 45.8083 115.597 45.7222 119.192C45.6648 120.917 45.7509 121.205 46.1814 121.291C46.4685 121.348 47.1287 121.061 47.674 120.658C48.937 119.68 49.1954 119.709 49.3676 120.831C49.425 121.348 49.6546 122.872 49.8268 124.195C50.3148 127.876 51.3769 131.125 53.5583 135.726C55.4528 139.752 56.7158 143.404 56.7158 144.928C56.7158 145.33 56.8593 146.107 57.0028 146.682C57.2899 147.717 57.3186 147.717 60.5334 148.637C62.2843 149.155 65.4418 150.276 67.4798 151.168C73.4215 153.698 77.2104 154.935 81.1141 155.567C83.0947 155.884 84.9891 156.229 85.3623 156.286L85.9938 156.43L85.2762 157.523C83.841 159.622 84.5299 160.024 89.1225 159.794C94.3466 159.564 99.0254 157.897 104.45 154.331C107.837 152.117 108.957 151.082 108.957 150.104C108.957 149.155 108.469 148.954 105.914 148.954C104.192 148.954 94.2892 148.263 91.792 147.947C90.6151 147.832 90.5003 147.89 89.1799 149.241C87.9169 150.564 87.6873 150.679 86.453 150.679C83.0373 150.679 76.5215 146.883 75.0863 144.036C74.2826 142.455 74.34 140.298 75.2585 138.343C76.4067 135.87 83.9558 128.422 92.854 121.061L96.155 118.329L93.1411 117.84C91.5049 117.581 89.1799 117.294 88.0031 117.179C85.879 116.977 85.8503 116.977 84.6447 117.955C83.9845 118.473 80.0808 121.693 75.9474 125.087C71.8427 128.48 67.8816 131.585 67.164 131.959C65.5566 132.822 63.6334 132.879 62.0547 132.132C59.3278 130.838 55.9408 124.54 55.6537 120.198C55.5102 117.898 55.826 117.265 57.8065 115.77L59.2991 114.648L59.2417 106.568L59.1556 98.4877L58.438 98.4014C57.9788 98.3439 57.2612 98.6314 56.5723 99.149Z" fill="white"/>
<path d="M167.283 102.168C166.882 102.628 165.131 114.246 165.102 116.575C165.073 118.271 165.102 118.3 166.221 119.077C169.781 121.492 168.92 125.259 163.236 132.333C161.083 135.036 160.021 135.726 158.156 135.726C155.716 135.726 155.142 135.208 145.555 124.655C138.149 116.517 137.546 115.885 136.943 115.885C136.742 115.885 136.312 116.316 135.996 116.862C135.25 118.128 134.36 118.703 132.667 119.019C131.375 119.249 130.198 119.997 130.198 120.572C130.198 120.716 131.088 121.751 132.179 122.901C133.269 124.023 136.226 127.272 138.78 130.119C146.932 139.234 148.195 141.793 146.387 145.474C145.497 147.257 143.287 149.069 140.101 150.564C138.034 151.542 135.192 152.404 133.987 152.404C132.867 152.404 131.719 151.599 131.03 150.391C130.657 149.759 130.169 149.241 129.94 149.212C129.681 149.184 125.749 149.212 121.156 149.241C112.918 149.299 112.115 149.385 112.115 150.276C112.115 150.938 114.095 152.922 116.793 155.021C121.903 158.989 126.84 161.031 131.777 161.232C135.451 161.376 135.738 161.203 134.819 159.449C134.446 158.73 134.188 158.098 134.245 158.04C134.303 158.012 136.054 157.81 138.092 157.609C142.569 157.206 148.396 155.912 151.094 154.733C153.075 153.842 160.079 151.772 162.26 151.398C162.92 151.312 163.581 151.053 163.724 150.88C163.868 150.679 164.155 149.701 164.327 148.666C164.844 146.049 165.848 143.605 168.03 139.924C171.474 134.001 173.771 128.681 174.287 125.345C174.402 124.713 174.603 124.138 174.746 124.051C174.89 123.936 175.464 124.281 175.981 124.799C176.612 125.403 177.129 125.69 177.588 125.604C178.248 125.518 178.277 125.432 178.22 123.246C178.076 118.847 176.698 113.268 174.919 109.702C173.885 107.689 171.532 104.469 170.096 103.117C168.661 101.766 167.829 101.507 167.283 102.168Z" fill="white"/>
<path d="M163.035 29.8482C163.753 30.6534 163.638 30.8834 160.624 35.053C158.357 38.1873 158.213 38.3023 157.381 38.1298C156.749 37.986 157.352 38.5324 159.734 40.2577C161.485 41.523 163.093 42.5582 163.294 42.5582C163.466 42.5582 164.04 42.2131 164.499 41.8105C165.102 41.3217 165.159 41.1779 164.729 41.3792C163.695 41.8968 162.662 41.7243 161.37 40.8616C159.275 39.3951 159.246 39.3375 160.653 37.4109C161.342 36.462 162.031 35.6568 162.174 35.6568C162.461 35.6568 164.384 37.0371 164.729 37.4972C164.844 37.6697 164.872 38.1011 164.786 38.4461C164.557 39.3663 164.7 39.28 165.733 37.8423C166.652 36.577 166.968 35.8006 166.308 36.462C165.733 37.0371 164.958 36.8646 163.638 35.9156L162.375 34.9955L163.581 33.3852C164.241 32.4937 164.786 31.7173 164.844 31.6598C164.93 31.516 166.91 32.8676 167.771 33.7015C168.288 34.1616 168.403 34.4779 168.259 35.1968L168.087 36.0882L168.661 35.3693C168.977 34.9667 169.235 34.5066 169.235 34.3341C169.235 34.1616 167.915 33.0688 166.308 31.8899C162.806 29.3306 162.289 29.0143 163.035 29.8482Z" fill="white"/>
<path d="M172.048 36.5195C172.22 36.7496 172.393 37.0946 172.393 37.2959C172.393 37.6985 166.939 43.6796 166.164 44.111C165.877 44.2835 165.475 44.226 165.102 43.996C164.757 43.7947 165.131 44.3123 165.934 45.1174C167.37 46.6127 168.087 47.044 167.456 46.0376C167.169 45.5775 167.341 45.29 168.518 43.8809C169.293 42.9895 170.01 42.2706 170.125 42.2706C170.211 42.2706 170.47 42.4719 170.67 42.702C170.929 43.0183 170.929 43.7659 170.613 46.1526L170.211 49.172L171.187 50.0921C171.933 50.7823 172.134 50.8973 171.962 50.466C171.532 49.3157 171.503 48.6544 171.79 46.4402C171.962 45.2037 172.163 44.1397 172.192 44.111C172.249 44.0535 172.737 44.1685 173.311 44.341C174.201 44.5998 174.488 44.5711 175.292 44.111C177.502 42.817 176.957 40.7178 173.713 37.8998C172.594 36.9221 171.847 36.2895 172.048 36.5195ZM174.603 39.4526C175.722 40.5165 175.464 42.2994 174.058 43.0183C173.053 43.5359 172.22 43.3921 171.13 42.5294L170.326 41.8968L171.847 40.3728C172.68 39.5101 173.512 38.82 173.656 38.82C173.799 38.82 174.23 39.1075 174.603 39.4526Z" fill="white"/>
<path d="M51.8075 37.9285C50.401 38.82 46.4112 42.5007 47.4732 41.9256C48.1334 41.5805 48.3057 41.6955 51.1473 44.7148C54.2474 47.993 54.764 48.8269 54.1038 49.6896C53.8742 49.9484 54.7927 49.2007 56.1131 47.993C57.4622 46.814 58.7826 45.3475 59.0983 44.7724C60.3326 42.3857 59.328 39.2513 56.8881 37.8135C55.1659 36.8071 53.5011 36.8358 51.8075 37.9285ZM55.0798 38.6474C55.5964 38.8487 56.515 39.5964 57.0891 40.2577C58.8687 42.3569 58.8687 44.6861 57.0891 46.4402C56.515 46.9865 55.9409 47.4466 55.8261 47.4466C55.7113 47.4466 54.2474 45.9513 52.5538 44.111C49.7121 40.9766 49.5399 40.7178 49.9131 40.1427C50.4584 39.3088 52.3816 38.2449 53.3575 38.2449C53.7881 38.2449 54.5631 38.4174 55.0798 38.6474Z" fill="white"/>
<path d="M180.602 45.405C180.774 46.1526 180.516 46.4402 177.56 49.0282C175.78 50.5522 174.144 51.875 173.943 51.9612C173.742 52.0187 173.283 51.9325 172.938 51.7599C172.536 51.5299 172.795 51.99 173.684 53.0252C174.459 53.9166 175.12 54.6355 175.148 54.6355C175.148 54.6355 175.12 54.3192 175.062 53.9454C174.947 53.3703 175.407 52.8239 177.99 50.581C181.578 47.4179 181.951 47.1878 182.812 47.7054L183.444 48.108L182.841 47.4179C182.525 47.044 181.865 46.2389 181.348 45.635C180.43 44.5711 180.43 44.5711 180.602 45.405Z" fill="white"/>
<path d="M43.225 46.7277C42.8231 46.929 41.9046 47.7917 41.2157 48.6256C39.6083 50.5234 38.6898 51.7312 39.2064 51.2423C39.9527 50.581 40.6129 50.8973 43.713 53.514C47.4732 56.6771 47.588 56.8209 47.2148 57.6261C47.0426 57.9424 47.5593 57.511 48.3343 56.6484C49.8269 55.0093 49.9991 54.6355 49.0232 55.2394C48.5065 55.5557 48.2482 55.4406 46.8417 54.3192C44.488 52.4501 44.6889 52.1913 48.7649 52.1913H52.1232L52.8695 51.2423C53.2714 50.7535 53.4723 50.3222 53.3001 50.3222C53.1566 50.3222 52.9269 50.4372 52.8408 50.6097C52.6399 50.926 48.9945 51.0123 47.588 50.7247C46.7843 50.5522 46.7556 50.4947 46.9852 49.6608C47.6741 47.2741 45.4065 45.52 43.225 46.7277ZM45.3778 48.4531C45.7796 48.8269 46.0954 49.4307 46.0954 49.8046C46.0954 50.4659 45.1195 52.335 44.775 52.335C44.3444 52.335 41.5315 49.8621 41.5028 49.4882C41.5028 49.2582 41.7898 48.7694 42.1342 48.3955C42.9954 47.4754 44.4593 47.5041 45.3778 48.4531Z" fill="white"/>
<path d="M181.176 52.3351C179.569 53.1402 178.794 53.9454 178.248 55.3831C177.043 58.5462 179.339 62.1694 182.497 62.0832C183.386 62.0544 183.358 62.0257 182.181 61.7956C178.421 61.048 177.847 56.4758 181.205 54.3192C184.42 52.2488 186.773 52.4788 188.036 54.9231C188.61 56.0445 188.582 56.8784 187.893 58.1724L187.29 59.2651L188.582 58.3162C189.931 57.3385 190.189 56.9359 189.472 56.9359C189.242 56.9359 188.926 56.4471 188.725 55.7282C188.553 55.0381 188.151 54.1179 187.807 53.6578C186.544 51.9037 183.358 51.2423 181.176 52.3351Z" fill="white"/>
<path d="M35.3601 56.7346C34.4129 58.1724 33.4656 59.6965 33.2073 60.099C32.7767 60.8179 32.7767 60.8179 33.3508 60.3291C33.9249 59.8402 34.011 59.8402 35.5036 60.7604C36.3647 61.278 38.1157 62.4282 39.436 63.2909C41.5888 64.6999 41.7898 64.93 41.7037 65.6489C41.5601 66.6841 41.6463 66.5978 44.0287 62.8596L46.0667 59.6965L45.2916 58.6325C44.8611 58.0574 44.4879 57.5686 44.4592 57.5973C44.4305 57.6261 44.5741 58.2012 44.7463 58.8913C45.0907 60.2141 44.8324 61.048 43.3972 62.8308L42.737 63.636L40.9861 62.572C40.0101 61.9969 39.149 61.393 39.0629 61.2205C38.8333 60.9042 40.5555 58.3737 41.0148 58.3449C41.2157 58.3162 41.6175 58.3449 41.9333 58.3737C42.2777 58.4025 41.962 58.0862 41.1296 57.5398C39.5222 56.5046 39.3786 56.4471 39.8379 57.2235C40.1536 57.7123 40.0962 57.9999 39.4935 59.1213C39.1203 59.8402 38.661 60.5016 38.4601 60.5879C38.0583 60.7317 34.9008 58.805 34.9008 58.4312C34.9008 58.2874 35.3888 57.4823 35.9916 56.6196C36.9675 55.2394 37.1971 55.0668 38.0583 55.1243L39.0342 55.1531L38.3453 54.6067C37.9434 54.3192 37.5129 54.0604 37.3407 54.0604C37.1971 54.0604 36.2786 55.2681 35.3601 56.7346Z" fill="white"/>
<path d="M31.0545 63.8373C30.3369 65.6201 30.1934 66.1089 30.5952 65.4763C30.7674 65.2175 31.1406 64.9875 31.4276 64.9875C32.2887 64.9875 38.2879 68.0643 38.6036 68.6969C39.436 70.221 38.6323 72.7227 37.1684 73.3553C36.1925 73.7292 35.4175 73.4991 31.5711 71.7163C28.9304 70.4798 28.7582 70.336 28.873 69.157C28.9591 68.3519 28.8156 68.5819 27.7535 70.8536C27.0646 72.3489 26.9785 72.7515 27.3804 72.3776C27.6674 72.1188 28.0693 71.8888 28.2702 71.8888C28.4424 71.8888 30.0211 72.5214 31.7434 73.3266C35.3314 74.9656 36.4508 75.1094 37.7138 74.0455C39.3786 72.6364 40.0675 69.7897 39.1203 68.3231C38.8619 67.9205 37.1684 66.8853 35.2165 65.8789C32.2026 64.3261 31.7721 64.0385 31.686 63.3197C31.5998 62.6008 31.5711 62.6295 31.0545 63.8373Z" fill="white"/>
<path d="M182.583 65.5914C182.985 66.3678 183.358 67.0004 183.386 67.0004C183.444 67.0004 183.473 66.7128 183.473 66.3678C183.444 65.8214 183.645 65.7064 184.85 65.5051C185.654 65.3901 186.372 65.3613 186.458 65.4188C186.573 65.4763 187.003 66.3965 187.462 67.4317L188.266 69.3583L187.204 70.3935C186.285 71.3425 186.113 71.4 185.597 71.0837C185.08 70.7674 185.109 70.9399 185.884 72.4639C186.687 74.0455 187.261 74.8219 186.86 73.7579C186.659 73.2403 187.233 72.4639 191.165 68.0356C192.83 66.1377 194.15 64.5562 194.093 64.4987C194.036 64.4411 191.624 64.5274 188.725 64.6712C184.448 64.9012 183.3 64.8725 182.669 64.5562L181.894 64.1823L182.583 65.5914ZM191.022 66.0515C190.648 66.5115 189.96 67.2879 189.472 67.8055L188.639 68.7545L187.836 67.2304C187.405 66.3965 187.061 65.6201 187.032 65.4763C187.032 65.3613 188.094 65.2751 189.386 65.2751H191.711L191.022 66.0515Z" fill="white"/>
<path d="M196.82 72.0613C196.791 72.5214 196.619 73.1253 196.447 73.3841C195.959 73.9879 189.156 76.0008 188.122 75.857C187.233 75.7133 187.175 75.8858 187.749 77.3523C188.122 78.33 188.151 78.33 188.151 77.5824C188.18 76.8347 188.352 76.7485 191.423 75.7708C194.638 74.7643 195.356 74.6206 195.356 74.9081C195.356 74.9944 194.064 77.0073 192.457 79.394C190.878 81.7807 189.644 83.7936 189.701 83.8511C189.787 83.9373 191.739 83.391 194.093 82.6721C198.829 81.2343 199.489 81.1481 199.92 81.8669C200.322 82.5571 200.293 82.327 199.834 80.803C199.518 79.8253 199.374 79.624 199.231 79.9978C199.087 80.3429 197.939 80.8605 195.729 81.5506C193.921 82.1257 192.371 82.5283 192.313 82.4421C192.256 82.3845 193.433 80.5154 194.925 78.2725C196.418 76.0583 197.652 73.9879 197.623 73.7004C197.623 73.4128 197.423 72.7227 197.222 72.1763L196.848 71.1699L196.82 72.0613Z" fill="white"/>
<path d="M26.0028 75.7708C26.2612 76.0871 26.175 76.3747 25.5723 77.2086C24.7111 78.3013 24.3667 80.1129 24.6824 81.7807C25.0556 83.7361 27.1797 85.4614 29.7056 85.864C33.8677 86.5254 37.1112 81.2343 34.4705 78.0712L33.7242 77.2086L34.327 78.215C35.4464 80.1704 34.7575 82.9309 32.8918 83.8798C30.8251 84.9438 26.376 83.506 25.4574 81.4931C24.4528 79.279 25.8019 76.6622 28.1269 76.2884L29.3038 76.1159L27.7251 75.742C25.6871 75.2532 25.5723 75.2532 26.0028 75.7708Z" fill="white"/>
<path d="M194.696 85.8065C192.313 86.4678 190.763 88.3945 190.763 90.7524C190.763 94.7207 195.069 97.0499 198.915 95.1808C202.36 93.5417 202.675 88.682 199.489 86.4966C198.111 85.5477 196.504 85.3176 194.696 85.8065ZM199.173 87.5318C200.609 88.1357 201.24 89.0271 201.24 90.4361C201.24 92.7078 198.915 94.1743 195.356 94.1743C193.117 94.1743 192.084 93.628 191.452 92.1039C190.964 90.9537 191.28 89.5447 192.198 88.7108C193.662 87.388 197.394 86.7554 199.173 87.5318Z" fill="white"/>
<path d="M32.6047 88.5957C32.2889 89.0271 30.8537 89.5159 26.9213 90.4936C22.7592 91.5288 21.7259 91.8739 22.0416 92.1614C22.2426 92.334 24.1657 93.5704 26.2898 94.8932C28.4139 96.1872 30.5093 97.6537 30.9685 98.1426L31.7436 99.034V98.2001C31.7436 97.7112 31.8297 97.0211 31.9158 96.6185C32.088 95.9284 32.088 95.9284 31.6574 96.4748C31.1982 97.0499 31.1982 97.0499 29.8491 96.3597L28.5287 95.6408L28.7009 94.0593C29.0167 91.5001 29.1315 91.2413 30.0787 91.04C31.6287 90.7237 32.3176 90.8387 32.3463 91.3563C32.3463 91.7876 32.375 91.7876 32.576 91.2988C32.8343 90.6661 33.2649 87.9919 33.1213 87.9919C33.0639 88.0206 32.8343 88.2794 32.6047 88.5957ZM28.3852 92.794C28.0695 95.267 28.0982 95.267 26.0889 94.088C25.0842 93.4842 24.3379 92.9091 24.3666 92.7365C24.4528 92.5352 27.3231 91.6151 28.3565 91.4713C28.4713 91.4425 28.5 92.0464 28.3852 92.794Z" fill="white"/>
<path d="M196.074 100.213C195.672 100.587 195.356 101.248 195.356 101.651C195.356 102.513 196.762 104.095 197.509 104.095C198.198 104.095 199.575 103.319 199.776 102.801C200.724 100.328 197.882 98.3726 196.074 100.213Z" fill="white"/>
<path d="M24.9979 101.651C23.7637 102.887 24.2516 104.958 25.8878 105.36C27.4091 105.763 28.873 104.555 28.873 102.916C28.873 102.025 27.61 100.932 26.5767 100.932C26.0313 100.932 25.4285 101.191 24.9979 101.651Z" fill="white"/>
<path d="M195.385 109.731C193.462 112.204 196.906 114.965 199.116 112.75C200.15 111.715 200.178 111.025 199.202 109.875C198.6 109.127 198.255 108.983 197.222 108.983C196.217 108.983 195.844 109.127 195.385 109.731ZM198.628 109.846C199.604 110.191 199.891 111.399 199.231 112.147C198.571 112.894 196.361 112.923 195.586 112.233C193.921 110.738 196.217 108.926 198.628 109.846Z" fill="white"/>
<path d="M27.2656 110.651C27.0933 110.766 26.6054 111.399 26.1748 112.06C25.3711 113.383 25.1702 113.498 24.6248 112.952C24.1368 112.463 24.1942 111.686 24.7396 111.169C25.1128 110.766 25.1128 110.709 24.7683 110.709C24.2803 110.709 23.9072 111.945 24.1368 112.75C24.3665 113.469 25.3137 113.958 25.8878 113.642C26.1461 113.498 26.6341 112.894 26.9785 112.262C27.3804 111.543 27.8109 111.14 28.1554 111.14C28.9878 111.14 29.0452 112.262 28.2415 112.837L27.61 113.297H28.2989C28.9017 113.297 29.0165 113.153 29.0739 112.319C29.1887 110.91 28.2128 110.019 27.2656 110.651Z" fill="white"/>
<path d="M194.667 114.907C194.581 115.166 194.495 115.712 194.495 116.115C194.495 116.834 194.581 116.891 195.872 116.891C196.619 116.891 197.709 116.977 198.312 117.092C199.116 117.236 199.374 117.179 199.374 116.891C199.374 116.604 198.743 116.431 197.078 116.287C195.212 116.144 194.782 116 194.782 115.626C194.782 115.367 194.925 114.993 195.126 114.792C195.356 114.562 195.356 114.447 195.155 114.447C194.983 114.447 194.753 114.648 194.667 114.907Z" fill="white"/>
<path d="M25.285 115.741C24.8831 116.115 24.5674 116.661 24.5674 116.92C24.5674 117.294 24.7109 117.236 25.1415 116.661C26.0887 115.453 28.4424 115.396 29.2174 116.575C29.3896 116.805 29.447 116.805 29.447 116.546C29.447 115.942 27.9544 115.022 26.9498 115.022C26.2896 115.022 25.7442 115.252 25.285 115.741Z" fill="white"/>
<path d="M24.5674 117.869C24.5674 118.588 25.9739 119.623 26.9498 119.623C27.9257 119.623 29.447 118.703 29.447 118.128C29.447 117.955 29.1887 118.041 28.873 118.329C28.5859 118.588 27.7535 118.904 27.0646 118.962C25.9452 119.105 25.7442 119.019 25.1989 118.329C24.8544 117.898 24.5674 117.696 24.5674 117.869Z" fill="white"/>
<path d="M194.208 117.869C194.208 118.013 194.409 118.185 194.61 118.271C194.897 118.386 194.983 118.3 194.868 118.013C194.696 117.581 194.208 117.466 194.208 117.869Z" fill="white"/>
<path d="M194.38 120.083C193.748 120.687 193.806 121.147 194.466 120.744C195.126 120.313 195.93 120.601 196.131 121.32C196.246 121.837 196.332 121.808 197.509 121.147C198.197 120.773 198.8 120.284 198.886 120.083C199.001 119.824 198.599 119.939 197.853 120.371C196.447 121.176 196.217 121.205 196.217 120.629C196.217 120.399 195.959 120.083 195.672 119.911C194.954 119.537 194.896 119.537 194.38 120.083Z" fill="white"/>
<path d="M29.648 120.974C29.3609 121.262 25.6294 121.895 25.3137 121.722C25.1702 121.607 25.1128 121.751 25.2276 122.038C25.3424 122.326 25.4285 122.815 25.4572 123.16C25.4859 123.735 25.5146 123.735 25.6868 123.074C25.9165 122.24 27.3517 121.895 27.7535 122.556C27.9545 122.844 28.0119 122.815 28.0119 122.47C28.0119 122.153 28.3563 121.923 29.0165 121.808C29.6193 121.693 30.0211 121.435 30.0211 121.205C30.0211 120.744 29.935 120.687 29.648 120.974Z" fill="white"/>
<path d="M193.634 122.211C193.634 122.556 193.748 122.757 193.892 122.671C194.122 122.527 196.82 122.901 198.025 123.246C198.312 123.332 198.513 123.246 198.513 122.987C198.513 122.671 197.997 122.499 196.59 122.355C195.499 122.24 194.409 122.038 194.15 121.895C193.72 121.665 193.634 121.722 193.634 122.211Z" fill="white"/>
<path d="M30.0499 123.131C29.9925 123.821 28.8443 124.109 28.4424 123.534C28.1267 123.131 28.0693 123.16 27.7823 123.793C27.4378 124.569 26.6341 124.741 26.06 124.166C25.8591 123.965 25.7156 123.936 25.7156 124.109C25.7156 125 27.5813 125.489 27.8971 124.655C28.0119 124.396 28.3276 124.31 28.8443 124.396C29.7341 124.598 30.423 123.965 30.2221 123.16C30.1073 122.7 30.0786 122.7 30.0499 123.131Z" fill="white"/>
<path d="M193.06 124.943C193.06 125.173 193.117 125.374 193.174 125.374C193.232 125.374 193.347 125.173 193.461 124.943C193.548 124.713 193.49 124.511 193.347 124.511C193.174 124.511 193.06 124.713 193.06 124.943Z" fill="white"/>
<path d="M197.365 125.288C197.365 125.403 197.509 125.719 197.652 125.949C197.882 126.323 197.939 126.323 197.939 125.892C197.939 125.633 197.824 125.317 197.652 125.23C197.509 125.144 197.365 125.144 197.365 125.288Z" fill="white"/>
<path d="M195.069 125.949C195.069 126.265 195.126 126.524 195.184 126.524C195.241 126.524 195.356 126.265 195.442 125.949C195.528 125.633 195.471 125.374 195.327 125.374C195.184 125.374 195.069 125.633 195.069 125.949Z" fill="white"/>
<path d="M192.801 126.15C192.801 126.496 192.686 126.984 192.572 127.272C192.457 127.588 192.485 127.703 192.686 127.588C193.117 127.329 196.877 128.221 197.135 128.623C197.279 128.853 197.365 128.738 197.365 128.365C197.365 127.876 197.049 127.703 195.241 127.272C193.461 126.869 193.06 126.668 192.973 126.15L192.859 125.518L192.801 126.15Z" fill="white"/>
<path d="M28.7582 126.812C27.6387 127.099 26.6341 127.272 26.4619 127.186C26.3184 127.071 26.261 127.214 26.3758 127.502C26.4906 127.79 26.5767 128.077 26.5767 128.135C26.5767 128.221 26.8063 128.163 27.0934 128.02C27.3517 127.876 28.3851 127.588 29.3897 127.358C30.4517 127.128 31.1693 126.841 31.1693 126.611C31.1693 126.15 31.2267 126.15 28.7582 126.812Z" fill="white"/>
<path d="M31.1694 127.962C31.1694 128.738 29.7916 129.084 29.3037 128.422C28.9879 127.991 28.8444 128.048 28.0407 129.084C27.5527 129.687 27.1509 130.435 27.1509 130.694C27.1509 131.039 27.4379 130.809 28.012 130.032C28.9879 128.681 29.0453 128.652 29.6194 129.256C30.1648 129.802 30.4518 129.802 30.9972 129.227C31.4278 128.825 31.6574 127.387 31.3129 127.387C31.2268 127.387 31.1694 127.646 31.1694 127.962Z" fill="white"/>
<path d="M191.911 129.716C191.911 129.86 192.055 129.917 192.198 129.831C192.371 129.745 192.485 129.601 192.485 129.515C192.485 129.457 192.371 129.4 192.198 129.4C192.055 129.4 191.911 129.544 191.911 129.716Z" fill="white"/>
<path d="M193.949 130.176C194.696 130.464 195.499 130.866 195.758 131.096C196.074 131.355 196.217 131.384 196.217 131.154C196.217 130.78 194.811 130.119 193.461 129.86C193.002 129.745 193.203 129.889 193.949 130.176Z" fill="white"/>
<path d="M30.3084 132.16C29.275 132.534 28.2704 132.764 28.0408 132.678C27.7824 132.592 27.725 132.707 27.8398 133.023C27.9259 133.253 28.0121 133.598 28.0121 133.771C28.0121 133.914 28.1843 133.857 28.4139 133.627C28.6435 133.397 29.6769 132.966 30.7102 132.678C32.4612 132.189 32.9204 131.873 32.4038 131.643C32.2602 131.585 31.3417 131.815 30.3084 132.16Z" fill="white"/>
<path d="M191.05 132.62C191.05 132.994 193.806 134.001 194.868 134.001C195.356 134.001 196.217 133.081 196.217 132.592C196.217 132.39 195.987 132.505 195.672 132.879C195.155 133.541 195.126 133.541 193.605 133.081C192.744 132.851 191.825 132.534 191.567 132.419C191.194 132.275 191.05 132.333 191.05 132.62Z" fill="white"/>
<path d="M32.9204 134.173C32.9204 134.49 33.0065 134.576 33.0926 134.346C33.1788 134.145 33.1501 133.886 33.0639 133.799C32.9778 133.684 32.8917 133.857 32.9204 134.173Z" fill="white"/>
<path d="M30.7961 134.202C30.6813 134.288 30.5952 134.518 30.5952 134.691C30.5952 134.863 30.7387 134.835 30.9397 134.633C31.1119 134.461 31.198 134.231 31.1406 134.144C31.0545 134.058 30.8823 134.087 30.7961 134.202Z" fill="white"/>
<path d="M28.3851 134.662C28.4999 134.95 28.586 135.295 28.586 135.439C28.586 135.554 28.7869 135.726 29.0166 135.841C29.3897 135.956 29.361 135.87 28.9592 135.208C28.299 134.173 28.1555 134.029 28.3851 134.662Z" fill="white"/>
<path d="M190.218 135.611C189.242 136.876 189.443 137.25 191.366 137.883C192.342 138.17 193.289 138.602 193.49 138.803C193.806 139.09 193.892 139.062 194.035 138.717C194.122 138.458 194.208 138.228 194.208 138.17C194.208 138.142 193.748 137.998 193.203 137.911C192.658 137.796 192.198 137.595 192.198 137.423C192.198 137.25 192.112 137.193 191.969 137.279C191.854 137.336 191.337 137.221 190.849 137.02C189.816 136.589 189.816 135.899 190.792 135.582C191.452 135.352 191.883 135.611 192.198 136.416C192.428 136.991 192.457 136.991 192.457 136.272C192.514 134.777 191.165 134.375 190.218 135.611Z" fill="white"/>
<path d="M31.8295 138.659C30.9397 139.09 30.423 140.471 30.8536 141.276L31.1693 141.909L30.9971 141.247C30.8823 140.787 31.0832 140.384 31.7147 139.752C32.6906 138.745 34.0971 138.602 34.9869 139.378C35.5323 139.867 35.561 139.867 35.2453 139.292C34.7286 138.285 33.1786 137.998 31.8295 138.659Z" fill="white"/>
<path d="M35.188 141.333C34.9584 141.592 34.9584 141.765 35.1306 141.765C35.475 141.765 35.8769 141.218 35.676 141.017C35.6185 140.96 35.3889 141.075 35.188 141.333Z" fill="white"/>
<path d="M192.026 142.254C192.141 142.455 192.026 143.001 191.768 143.49C191.251 144.496 191.022 144.468 188.697 143.318C187.118 142.512 187.032 142.512 187.032 142.972C187.032 143.174 187.979 143.749 189.156 144.238L191.251 145.129L191.883 143.835C192.371 142.829 192.428 142.484 192.17 142.225C191.911 141.995 191.883 141.995 192.026 142.254Z" fill="white"/>
<path d="M34.2982 143.634C33.5806 144.036 32.6621 145.647 32.9778 145.963C33.0639 146.049 33.2074 145.848 33.3222 145.532C33.5232 144.87 35.3889 143.778 36.3075 143.778C36.6232 143.778 37.0825 144.065 37.3121 144.41C37.5704 144.755 37.7714 144.899 37.7714 144.727C37.7714 144.209 36.3362 143.202 35.6473 143.202C35.3315 143.231 34.7 143.404 34.2982 143.634Z" fill="white"/>
<path d="M37.5703 145.877C37.0536 146.969 34.6425 147.89 33.8675 147.286C33.7239 147.171 33.8387 147.315 34.1258 147.573C35.1591 148.551 37.1397 147.89 37.7712 146.366C38.2017 145.33 38.0008 144.899 37.5703 145.877Z" fill="white"/>
<path d="M185.166 146.682C184.908 147.171 184.735 147.602 184.793 147.631C184.85 147.688 185.769 148.177 186.859 148.752C188.352 149.529 188.926 149.73 189.098 149.442C189.242 149.241 189.127 149.069 188.811 148.982C188.553 148.925 187.979 148.637 187.548 148.35C187.147 148.033 186.687 147.803 186.544 147.803C186.4 147.803 186.056 147.631 185.769 147.43C185.338 147.113 185.281 146.941 185.568 146.423C185.74 146.078 185.826 145.791 185.769 145.791C185.683 145.791 185.396 146.193 185.166 146.682Z" fill="white"/>
<path d="M187.434 146.854C187.405 147.228 187.405 147.516 187.434 147.458C187.462 147.401 187.635 147.171 187.835 146.912C188.123 146.538 188.123 146.394 187.835 146.279C187.606 146.193 187.434 146.423 187.434 146.854Z" fill="white"/>
<path d="M189.759 147.372C189.759 147.746 189.845 147.976 189.988 147.89C190.103 147.832 190.189 147.602 190.189 147.372C190.189 147.142 190.103 146.912 189.988 146.854C189.845 146.768 189.759 146.998 189.759 147.372Z" fill="white"/>
<path d="M38.7186 148.522C38.4029 148.839 37.4556 149.442 36.6519 149.845C35.8769 150.276 35.2741 150.679 35.3603 150.765C35.4464 150.851 36.2214 150.478 37.0825 149.931C37.9436 149.385 38.6325 149.069 38.6325 149.212C38.6325 149.385 38.3168 150.391 37.9149 151.427C37.513 152.491 37.2547 153.411 37.3121 153.497C37.3982 153.554 38.2306 153.152 39.1492 152.577C40.0964 152.002 41.0149 151.542 41.1584 151.542C41.3307 151.542 41.4168 151.34 41.3307 151.11C41.1584 150.708 41.101 150.708 40.814 151.081C40.4696 151.513 38.6325 152.692 38.2881 152.692C38.1732 152.692 38.4029 151.829 38.8047 150.765C39.6658 148.436 39.6658 147.66 38.7186 148.522Z" fill="white"/>
<path d="M183.731 150.075C183.128 150.334 181.377 152.692 181.808 152.692C181.922 152.692 182.898 153.238 183.932 153.928L185.826 155.194L186.343 154.302C186.831 153.439 186.831 153.411 186.285 153.9C185.769 154.36 185.654 154.331 184.104 153.353C182.296 152.232 182.152 151.915 183.013 151.11C184.19 150.046 186.228 150.794 186.716 152.491L186.974 153.411L187.003 152.376C187.06 150.736 185.223 149.471 183.731 150.075Z" fill="white"/>
<path d="M42.3351 153.382L42.9953 154.072L41.1583 155.309C40.1823 155.97 39.2925 156.545 39.2638 156.603C39.2064 156.631 39.2925 156.919 39.4647 157.206C39.637 157.494 39.7805 157.58 39.7805 157.379C39.7805 157.034 42.8231 154.705 43.2537 154.705C43.3972 154.705 43.5694 155.021 43.6842 155.424C43.7703 155.826 43.9712 156.056 44.1148 155.97C44.4018 155.797 42.4212 152.692 41.9907 152.692C41.8185 152.692 41.9907 153.008 42.3351 153.382Z" fill="white"/>
<path d="M178.133 157.638L177.301 158.529L178.535 159.334C179.224 159.794 180.085 160.485 180.516 160.858C181.004 161.318 181.348 161.433 181.549 161.232C181.75 161.031 181.549 160.743 180.918 160.341C180.43 159.996 180.057 159.593 180.085 159.449C180.114 159.277 180.86 159.133 181.721 159.076C183.616 158.961 183.846 158.443 182.008 158.443C180.946 158.443 180.717 158.357 180.717 157.925C180.717 156.516 179.282 156.344 178.133 157.638ZM179.999 158.299C179.999 159.277 179.712 159.363 178.736 158.673C178.133 158.242 178.105 158.127 178.42 157.724C178.621 157.465 179.081 157.293 179.396 157.35C179.856 157.408 179.999 157.638 179.999 158.299Z" fill="white"/>
<path d="M44.9473 157.178C44.9473 157.35 44.1723 158.04 43.2538 158.702C42.1343 159.536 41.5889 160.082 41.7038 160.37C41.8186 160.686 42.0195 160.628 42.6223 160.053C43.0528 159.651 43.4834 159.306 43.5982 159.306C43.6843 159.306 44.1149 158.961 44.5167 158.558C45.4066 157.667 45.9519 157.782 45.9519 158.903C45.9519 159.651 45.8658 159.737 45.0334 159.737C44.1723 159.737 44.0575 159.852 43.6556 161.002C43.426 161.721 43.3399 162.411 43.4547 162.526C43.5982 162.67 43.8853 162.21 44.0862 161.491C44.4019 160.312 44.5167 160.197 45.1195 160.341C45.9232 160.542 46.6695 160.024 46.6695 159.277C46.6695 158.702 44.976 156.631 44.9473 157.178Z" fill="white"/>
<path d="M175.148 161.347C174.574 161.807 174.402 162.181 174.402 163.015C174.402 165.085 176.784 166.408 178.306 165.172C178.822 164.769 178.822 164.74 178.191 165.057C176.239 166.006 173.569 162.727 175.292 161.491C176.469 160.686 178.679 162.152 178.736 163.734C178.736 164.539 178.765 164.568 178.994 163.993C179.368 163.073 178.794 161.664 177.818 161.175C176.727 160.6 176.067 160.628 175.148 161.347Z" fill="white"/>
<path d="M46.5546 162.526C46.124 162.9 45.7222 163.59 45.6361 164.108C45.4925 164.884 45.6074 165.172 46.3537 165.948C47.1287 166.696 47.4157 166.811 48.1907 166.667C49.425 166.437 50.4009 165.287 50.4009 164.05C50.4009 163.504 50.2861 163.015 50.1713 162.929C50.0278 162.843 49.9704 163.159 50.0565 163.59C50.1426 164.194 49.9417 164.597 49.2528 165.287C47.8176 166.753 46.0953 166.437 46.0953 164.74C46.0953 163.705 47.9037 162.066 48.8509 162.267C49.2241 162.325 49.4537 162.267 49.3676 162.152C49.0518 161.635 47.2722 161.894 46.5546 162.526Z" fill="white"/>
<path d="M171.273 165.603C170.584 166.437 170.211 167.098 170.384 167.213C170.527 167.3 170.671 167.213 170.671 167.012C170.671 166.782 170.814 166.466 171.015 166.264C171.302 165.977 171.733 166.264 172.996 167.53C173.914 168.421 174.689 168.996 174.804 168.852C174.89 168.68 174.259 167.875 173.397 167.041C171.905 165.632 171.847 165.517 172.278 165.028C172.536 164.74 172.881 164.568 173.053 164.683C173.225 164.769 173.254 164.712 173.139 164.539C172.795 163.964 172.479 164.137 171.273 165.603Z" fill="white"/>
<path d="M50.8029 167.357L49.052 169.054L50.0853 170.06C50.6594 170.635 51.3196 171.095 51.5205 171.095C51.7215 171.095 51.4918 170.75 51.0039 170.348C50.5159 169.945 50.114 169.456 50.114 169.255C50.114 168.737 52.8409 166.149 53.128 166.408C53.2715 166.552 53.2141 166.408 53.0131 166.121C52.8122 165.862 52.6113 165.632 52.5826 165.632C52.5826 165.632 51.7789 166.408 50.8029 167.357Z" fill="white"/>
<path d="M168.805 168.22C168.719 168.364 168.891 168.507 169.235 168.507C169.58 168.507 169.752 168.364 169.666 168.22C169.58 168.047 169.379 167.932 169.235 167.932C169.092 167.932 168.891 168.047 168.805 168.22Z" fill="white"/>
<path d="M167.743 168.996C167.025 169.859 166.91 170.491 167.341 171.527C168.03 173.166 170.068 173.683 171.13 172.476L171.675 171.872L170.9 172.361C169.953 172.993 169.207 172.792 168.231 171.642C167.398 170.635 167.312 169.773 168.001 169.025C168.259 168.737 168.403 168.507 168.317 168.507C168.231 168.507 167.972 168.737 167.743 168.996Z" fill="white"/>
<path d="M57.003 170.29C57.003 170.491 56.3715 171.383 55.5965 172.246L54.2188 173.798L55.2234 174.604C56.5151 175.639 57.9216 175.667 58.8688 174.69C60.1031 173.482 59.7012 171.843 57.8641 170.52C57.2614 170.089 57.003 170.031 57.003 170.29ZM58.7253 171.699C59.2132 172.591 59.041 173.425 58.1799 174.287C57.204 175.265 56.4864 175.351 55.5391 174.575L54.8789 174.057L56.2567 172.447C57.6345 170.808 58.1799 170.635 58.7253 171.699Z" fill="white"/>
<path d="M163.81 172.361C163.15 172.907 162.748 173.425 162.892 173.511C163.035 173.626 163.753 174.46 164.442 175.409C165.533 176.846 165.791 177.048 166.078 176.703C166.279 176.444 166.308 176.271 166.135 176.271C165.992 176.271 165.647 175.926 165.36 175.524C164.901 174.834 164.901 174.747 165.389 174.23C165.676 173.913 166.078 173.741 166.308 173.827C166.652 173.942 166.652 173.913 166.394 173.568C166.107 173.223 165.934 173.281 165.332 173.885L164.614 174.604L164.011 173.798L163.38 173.022L164.183 172.332C164.614 171.958 165.102 171.757 165.274 171.843C165.475 171.958 165.504 171.9 165.389 171.728C165.102 171.268 165.131 171.239 163.81 172.361Z" fill="white"/>
<path d="M60.6195 175.466C59.988 176.415 59.2991 177.249 59.0695 177.335C58.8112 177.45 59.1556 177.824 60.0167 178.457C60.763 178.974 61.538 179.319 61.7677 179.233C62.2556 179.061 62.313 178.773 61.8251 178.946C61.3658 179.089 59.8732 178.255 59.8732 177.853C59.8732 177.709 60.1315 177.249 60.4186 176.875C60.8491 176.3 61.0214 176.243 61.538 176.53C61.8825 176.731 62.1695 176.99 62.1695 177.163C62.1695 177.335 62.313 177.364 62.4853 177.249C62.6862 177.134 62.4566 176.846 61.9112 176.501C61.0501 175.955 61.0501 175.926 61.538 175.236C61.8251 174.834 62.2269 174.604 62.5427 174.661C63.1168 174.805 62.9158 174.373 62.2269 174C61.8251 173.798 61.5093 174.086 60.6195 175.466Z" fill="white"/>
<path d="M167.255 175.524L166.566 176.415L167.37 175.639C167.829 175.207 168.145 174.805 168.059 174.747C168.001 174.661 167.628 175.035 167.255 175.524Z" fill="white"/>
<path d="M63.6335 175.322C63.8345 175.667 64.0641 175.898 64.1502 175.811C64.2363 175.754 64.0641 175.466 63.7771 175.179C63.2891 174.719 63.2604 174.719 63.6335 175.322Z" fill="white"/>
<path d="M159.275 175.725L158.328 176.329L159.677 178.227C160.423 179.291 161.055 180.211 161.083 180.268C161.141 180.297 161.313 180.268 161.485 180.153C161.686 180.038 161.543 179.664 161.055 179.089C160.653 178.629 160.423 178.083 160.509 177.939C160.624 177.767 160.595 177.709 160.423 177.795C160.079 177.997 159.103 176.386 159.333 175.984C159.591 175.552 160.509 175.639 160.883 176.099C161.083 176.329 161.141 176.818 161.055 177.22C160.883 177.853 160.997 177.939 162.146 178.284C163.093 178.543 163.581 178.543 163.983 178.313C164.442 178.054 164.413 178.025 163.724 177.997C163.294 177.997 162.633 177.882 162.203 177.709C161.6 177.479 161.514 177.307 161.658 176.703C161.858 175.898 161.37 175.121 160.653 175.121C160.395 175.121 159.763 175.409 159.275 175.725Z" fill="white"/>
<path d="M66.303 179.664C65.7002 180.7 65.1548 181.62 65.0974 181.706C65.0687 181.821 65.327 182.051 65.6715 182.281C66.2456 182.626 66.2743 182.626 65.9872 182.252C65.7002 181.936 65.7289 181.706 66.102 181.131C66.3604 180.757 66.6761 180.383 66.7622 180.297C66.8483 180.211 67.1067 179.722 67.3076 179.204C67.7382 178.14 67.9104 178.083 68.7715 178.802C69.2595 179.204 69.3743 179.492 69.2021 179.981C69.0298 180.527 68.8289 180.613 68.1687 180.527C67.4224 180.412 67.365 180.441 67.7669 180.872C67.9965 181.131 68.1974 181.562 68.1974 181.821C68.1974 182.367 67.3937 182.856 66.7622 182.684C66.5039 182.626 66.5326 182.684 66.8483 182.885C67.1354 183.086 67.7095 183.144 68.0826 183.058C68.6567 182.914 68.8002 182.713 68.7141 182.08C68.6567 181.534 68.8002 181.217 69.2021 181.016C70.3789 180.383 69.8909 179.032 68.1687 178.14C67.4511 177.767 67.4224 177.767 66.303 179.664Z" fill="white"/>
<path d="M154.453 179.549C156.031 180.24 156.835 182.31 155.974 183.46C155.773 183.719 155.888 183.604 156.261 183.23C156.634 182.856 156.893 182.195 156.893 181.706C156.893 180.556 155.515 179.147 154.395 179.147L153.592 179.176L154.453 179.549Z" fill="white"/>
<path d="M152.73 180.01C151.582 181.275 152.53 183.834 154.194 183.949C154.912 184.007 154.941 183.978 154.424 183.777C153.075 183.201 152.214 180.872 153.018 180.01C153.305 179.693 153.477 179.434 153.391 179.434C153.305 179.434 153.018 179.693 152.73 180.01Z" fill="white"/>
<path d="M71.7279 180.47C71.814 180.585 71.5844 181.275 71.2113 182.051C70.8094 182.828 70.4937 183.748 70.4937 184.15C70.4937 184.927 71.6992 186.048 72.4742 186.048C72.7326 186.019 72.5316 185.847 72.0437 185.646C71.5557 185.416 71.0677 185.042 70.9816 184.812C70.8955 184.582 71.2113 183.575 71.6705 182.598C72.4742 180.872 72.5316 180.297 71.8714 180.297C71.6992 180.297 71.6131 180.383 71.7279 180.47Z" fill="white"/>
<path d="M74.7993 182.454C74.7993 182.684 74.3974 183.518 73.9382 184.323C73.4502 185.128 73.1919 185.732 73.3354 185.617C73.6224 185.444 75.3734 182.511 75.3734 182.195C75.3734 182.109 75.2585 182.022 75.0863 182.022C74.9428 182.022 74.7993 182.224 74.7993 182.454Z" fill="white"/>
<path d="M148.339 182.252C148.109 182.425 148.31 182.511 148.884 182.511C149.487 182.511 149.975 182.713 150.348 183.144C150.98 183.949 151.037 185.559 150.406 186.163C150.176 186.422 150.09 186.623 150.233 186.623C150.807 186.623 151.554 185.387 151.554 184.409C151.554 182.77 149.602 181.476 148.339 182.252Z" fill="white"/>
<path d="M147.076 182.799C146.789 182.856 146.559 182.971 146.559 183.058C146.559 183.115 147.018 184.064 147.564 185.157C148.109 186.25 148.454 187.198 148.367 187.313C147.966 187.687 148.769 187.457 149.315 187.026C149.602 186.796 149.717 186.652 149.516 186.767C149.085 186.968 147.305 183.604 147.535 183C147.621 182.77 147.65 182.626 147.621 182.626C147.592 182.655 147.334 182.713 147.076 182.799Z" fill="white"/>
<path d="M77.2104 183.748C76.3493 184.093 75.6604 185.157 75.6604 186.077C75.6604 186.796 77.2965 189.758 77.7271 189.786C78.1289 189.786 77.5262 188.464 76.8947 187.975C75.8039 187.112 76.2345 184.956 77.7271 183.92C78.416 183.431 78.1863 183.345 77.2104 183.748Z" fill="white"/>
<path d="M79.392 184.323C79.7077 184.639 79.9661 185.013 79.9661 185.157C79.9661 185.761 79.3346 187.083 78.7605 187.687C78.2725 188.205 78.2438 188.349 78.5883 188.349C79.9948 188.349 80.8559 185.243 79.7364 184.237C78.9901 183.546 78.7031 183.633 79.392 184.323Z" fill="white"/>
<path d="M142.828 184.984C142.828 185.272 143.229 185.847 143.689 186.25C144.177 186.623 144.464 187.112 144.349 187.256C144.263 187.428 144.32 187.486 144.492 187.371C144.665 187.285 145.067 187.544 145.382 187.975C145.784 188.464 146.1 188.636 146.272 188.464C146.444 188.291 145.87 187.515 144.693 186.336C143.402 185.042 142.828 184.639 142.828 184.984Z" fill="white"/>
<path d="M82.406 185.473C82.4634 185.588 82.2912 186.393 81.9755 187.285C81.2579 189.298 81.2579 189.355 81.9755 190.074C82.6643 190.764 84.0421 190.822 84.5875 190.189C85.1042 189.585 86.2523 186.681 86.0514 186.48C85.9653 186.393 85.6496 187.083 85.3338 187.975C84.6162 190.074 84.3866 190.362 83.4107 190.362C82.0616 190.362 81.8032 189.729 82.3773 187.831C82.6643 186.94 83.0088 186.048 83.1523 185.876C83.3245 185.646 83.2384 185.502 82.8366 185.387C82.5208 185.301 82.3199 185.329 82.406 185.473Z" fill="white"/>
<path d="M139.67 185.876C139.67 185.933 139.871 186.048 140.101 186.163C140.33 186.25 140.531 186.192 140.531 186.048C140.531 185.876 140.33 185.761 140.101 185.761C139.871 185.761 139.67 185.818 139.67 185.876Z" fill="white"/>
<path d="M138.436 186.249C138.092 186.336 138.005 186.508 138.178 186.71C138.58 187.227 139.642 190.592 139.441 190.764C139.355 190.85 139.469 190.937 139.728 190.937C140.302 190.937 140.56 190.62 140.273 190.247C139.842 189.671 139.039 186.911 139.211 186.48C139.383 186.048 139.326 186.019 138.436 186.249Z" fill="white"/>
<path d="M136.886 187.055C136.8 187.313 136.8 187.601 136.915 187.687C137.001 187.802 137.087 187.659 137.087 187.4C137.087 187.17 137.259 186.882 137.46 186.825C137.718 186.71 137.718 186.652 137.431 186.652C137.23 186.623 137.001 186.825 136.886 187.055Z" fill="white"/>
<path d="M87.7448 188.722C87.5726 189.528 87.2281 190.563 86.9985 191.023C86.7976 191.454 86.7114 191.799 86.855 191.799C86.9698 191.799 87.3142 191.886 87.6013 192.001C87.9457 192.116 88.0318 192.087 87.8883 191.828C87.5439 191.282 88.0031 189.786 88.5198 189.786C88.9216 189.786 88.9216 189.729 88.6059 189.528C88.2902 189.326 88.2902 189.096 88.5485 188.349C88.9503 187.17 88.9503 187.198 88.4911 187.198C88.2615 187.198 87.9457 187.802 87.7448 188.722Z" fill="white"/>
<path d="M134.245 187.515C133.154 187.745 132.753 188.205 132.839 189.068C132.896 189.47 133.355 189.786 134.446 190.189C136.025 190.764 136.427 191.483 135.451 192.058C134.762 192.461 135.25 192.461 135.967 192.087C136.57 191.742 136.714 190.592 136.168 190.131C135.967 189.988 135.25 189.7 134.618 189.528C133.958 189.355 133.355 189.039 133.269 188.809C132.896 187.86 134.819 187.342 135.336 188.262C135.68 188.837 135.709 188.464 135.422 187.745C135.278 187.428 134.991 187.371 134.245 187.515Z" fill="white"/>
<path d="M142.856 187.946C142.856 188.262 142.943 188.349 143.029 188.119C143.115 187.917 143.086 187.659 143 187.572C142.914 187.457 142.828 187.63 142.856 187.946Z" fill="white"/>
<path d="M90.443 188.061C90.5291 188.205 90.7588 188.349 90.9023 188.349C91.0745 188.349 91.1032 188.205 91.0171 188.061C90.931 187.889 90.7014 187.774 90.5578 187.774C90.3856 187.774 90.3569 187.889 90.443 188.061Z" fill="white"/>
<path d="M92.768 188.809C92.0791 189.499 92.2226 190.103 93.342 191.253C94.0022 191.943 94.318 192.489 94.2319 192.777C93.9735 193.467 92.7106 193.352 92.1939 192.604C91.8207 192.087 91.7346 192.058 91.7346 192.432C91.7346 193.381 93.8013 193.927 94.5476 193.18C95.1504 192.576 94.9208 191.771 93.8874 190.85C92.7967 189.873 92.5957 189.125 93.3994 188.665C93.6578 188.492 93.7439 188.349 93.543 188.349C93.3707 188.349 92.9976 188.55 92.768 188.809Z" fill="white"/>
<path d="M130.629 188.636C130.715 188.78 130.858 188.924 130.944 188.924C131.002 188.924 131.059 188.78 131.059 188.636C131.059 188.464 130.916 188.349 130.743 188.349C130.6 188.349 130.542 188.464 130.629 188.636Z" fill="white"/>
<path d="M94.5477 189.154C94.8061 189.441 95.0931 189.556 95.1505 189.413C95.2079 189.269 95.0644 189.039 94.8635 188.895C94.1746 188.464 94.0024 188.607 94.5477 189.154Z" fill="white"/>
<path d="M129.279 188.837C129.48 188.924 129.739 188.895 129.825 188.809C129.94 188.722 129.767 188.636 129.452 188.665C129.136 188.665 129.05 188.751 129.279 188.837Z" fill="white"/>
<path d="M128.533 190.994C128.82 192.144 128.992 193.266 128.906 193.438C128.763 193.841 129.107 193.87 130.198 193.525C130.858 193.323 130.858 193.295 130.313 193.266C129.394 193.237 128.906 191.454 129.71 191.138C129.911 191.052 129.853 190.965 129.566 190.965C129.251 190.937 129.021 190.592 128.877 189.93C128.791 189.384 128.533 188.924 128.361 188.924C128.074 188.924 128.131 189.47 128.533 190.994Z" fill="white"/>
<path d="M142.541 189.326C142.541 189.585 142.684 189.786 142.828 189.786C143 189.786 143.115 189.671 143.115 189.528C143.115 189.355 143 189.154 142.828 189.068C142.684 188.981 142.541 189.096 142.541 189.326Z" fill="white"/>
<path d="M89.8115 189.729C89.6106 189.844 89.5531 190.103 89.6967 190.333C89.8689 190.592 89.9837 190.534 90.0985 190.103C90.1846 189.758 90.2133 189.499 90.2133 189.499C90.1846 189.499 90.0124 189.614 89.8115 189.729Z" fill="white"/>
<path d="M98.9969 189.93C99.083 190.103 98.9969 191.195 98.7959 192.317C98.4802 194.129 98.5089 194.359 98.9107 194.474C99.2552 194.56 99.3413 194.416 99.2552 193.812C99.1978 193.352 99.3413 192.863 99.5996 192.576C99.8867 192.288 99.9441 192.087 99.7432 192.029C99.1691 191.828 99.7432 190.074 100.375 190.074C101.178 190.074 101.465 191.483 100.748 192.001C100.231 192.403 100.231 192.403 100.891 192.317C101.724 192.202 102.183 191.195 101.666 190.505C101.236 189.901 98.7959 189.384 98.9969 189.93Z" fill="white"/>
<path d="M121.73 190.707C121.816 191.08 121.931 192.173 121.96 193.122L122.017 194.905L123.022 194.761C124.83 194.531 125.318 194.387 125.318 194.042C125.318 193.783 125.232 193.783 124.974 194.042C124.773 194.244 124.227 194.387 123.711 194.387C122.85 194.387 122.792 194.33 122.62 193.065C122.534 192.317 122.448 191.339 122.448 190.908C122.448 190.362 122.304 190.074 122.017 190.074C121.701 190.074 121.615 190.275 121.73 190.707Z" fill="white"/>
<path d="M103.647 191.08C103.159 191.541 102.929 192.087 102.929 192.806C102.929 193.87 103.934 195.25 104.709 195.25C104.91 195.25 104.766 195.049 104.422 194.79C103.934 194.445 103.79 194.071 103.79 193.007C103.79 192.231 103.991 191.368 104.25 190.994C104.824 190.16 104.508 190.189 103.647 191.08Z" fill="white"/>
<path d="M106.402 190.965C107.206 191.771 107.034 193.956 106.087 194.732C105.742 195.02 105.599 195.25 105.771 195.25C105.972 195.25 106.431 194.934 106.804 194.531C107.78 193.582 107.78 191.857 106.862 190.994C106.001 190.189 105.599 190.16 106.402 190.965Z" fill="white"/>
<path d="M116.736 191.426C116.879 192.029 116.994 193.122 116.994 193.87V195.25H118.429C119.606 195.25 119.893 195.135 120.18 194.589C120.525 193.985 120.496 193.985 119.951 194.445C119.635 194.732 118.975 194.962 118.487 194.962C117.568 194.962 117.568 194.962 117.568 193.438C117.568 192.633 117.482 191.656 117.396 191.31C117.281 190.879 117.367 190.678 117.769 190.563C118.085 190.477 117.913 190.419 117.396 190.39C116.477 190.362 116.477 190.362 116.736 191.426Z" fill="white"/>
<path d="M119.434 190.649C119.52 190.793 119.664 190.937 119.75 190.937C119.807 190.937 119.865 190.793 119.865 190.649C119.865 190.477 119.721 190.362 119.549 190.362C119.405 190.362 119.348 190.477 119.434 190.649Z" fill="white"/>
<path d="M130.485 190.649C130.112 190.879 130.141 190.937 130.571 190.937C130.829 190.937 131.059 190.793 131.059 190.649C131.059 190.304 131.03 190.304 130.485 190.649Z" fill="white"/>
<path d="M109.474 192.231C109.531 193.093 109.445 194.215 109.273 194.675C109.015 195.48 109.015 195.538 109.761 195.538C110.335 195.538 110.421 195.451 110.163 195.192C109.962 194.991 109.818 194.474 109.818 194.042C109.818 192.863 110.536 193.036 111.426 194.387C111.914 195.135 112.402 195.538 112.803 195.538C113.349 195.509 113.349 195.48 112.918 195.25C112.66 195.077 112.143 194.56 111.799 194.071L111.196 193.208L111.799 192.777C112.746 192.087 112.43 190.649 111.282 190.649C110.966 190.649 110.966 190.735 111.368 191.195C111.914 191.799 111.713 192.576 110.909 192.835C110.134 193.065 109.962 192.806 110.077 191.627C110.134 190.965 110.019 190.649 109.761 190.649C109.474 190.649 109.416 191.052 109.474 192.231Z" fill="white"/>
<path d="M89.8115 192.001C89.3809 192.144 89.3235 192.662 89.6967 192.662C89.8402 192.662 90.0124 192.461 90.1272 192.231C90.2133 192.001 90.242 191.799 90.2133 191.828C90.1846 191.828 89.9837 191.914 89.8115 192.001Z" fill="white"/>
<path d="M133.642 192.231C133.642 192.461 133.872 192.547 134.216 192.461C134.532 192.374 134.79 192.259 134.79 192.231C134.79 192.202 134.532 192.087 134.216 192.001C133.872 191.914 133.642 192.001 133.642 192.231Z" fill="white"/>
<path d="M119.061 192.346C118.774 192.518 118.774 192.633 119.147 192.95C119.52 193.266 119.577 193.208 119.577 192.691C119.577 192.001 119.577 192.001 119.061 192.346Z" fill="white"/>
<path d="M131.69 192.662C131.461 193.036 131.461 193.237 131.633 193.237C131.805 193.237 132.006 193.036 132.121 192.806C132.379 192.116 132.092 192.029 131.69 192.662Z" fill="white"/>
<path d="M265.106 51.8175C264.733 52.6801 257.959 70.9111 253.194 83.8223C249.577 93.5992 243.923 108.84 231.063 143.404C228.021 151.657 225.495 158.5 225.495 158.587C225.495 158.673 231.867 158.73 239.675 158.73H253.854L254.715 156.344C255.175 155.05 256.696 150.708 258.103 146.739L260.628 139.464H279.315H297.972L301.273 149.097L304.545 158.73H318.984C326.935 158.73 333.422 158.673 333.422 158.615C333.422 158.472 331.097 152.232 317.922 116.747C313.932 106.079 310.2 95.9859 309.597 94.3181C308.248 90.5511 294.183 52.7089 293.81 51.8175L293.523 51.1848H279.458H265.393L265.106 51.8175ZM283.879 94.6057C286.146 101.967 288.758 110.249 289.619 113.009C290.509 115.77 291.227 118.185 291.227 118.386C291.227 118.674 288.701 118.76 279.171 118.76C272.541 118.76 267.116 118.674 267.116 118.588C267.116 118.444 272.426 101.881 278.655 82.5859C278.97 81.5794 279.343 80.8605 279.458 81.0043C279.602 81.1193 281.582 87.2443 283.879 94.6057Z" fill="white"/>
</g>
<defs>
<clipPath id="clip0_195_717">
<rect width="226" height="210" fill="white"/>
</clipPath>
</defs>
</svg>
